# xmcd
#
# Track frame offsets: 
#        150
#        13904
#        28469
#        42362
#        57788
#        72552
#        84904
#        103360
#        120310
#        138385
#        151986
#        166072
#        181777
#        197076
#        211736
#
# Disc length: 3034 seconds
#
# Revision: 1
# Processed by: cddbd v1.5.2PL0 Copyright (c) Steve Scherf et al.
# Submitted via: ExactAudioCopyFreeDBPlugin 1.0
#
DISCID=cb0bd80f
DTITLE=Dagmar Lay D. - Ich würd' es trotzdem wieder tun
DYEAR=2008
DGENRE=Country
TTITLE0=Zur Hölle mit dem Glück
TTITLE1=Um Gefühle ging es nicht
TTITLE2=Warum sag ich ihm nicht das ich ihn liebe
TTITLE3=Echt schön von dir zu hören
TTITLE4=Mein großer Bruder und ich
TTITLE5=Alles was ich will
TTITLE6=Mittendrin allein
TTITLE7=Ich würd' es trotzdem wieder tun
TTITLE8=Wo bist du hin
TTITLE9=Wie ein Hurricane
TTITLE10=Nimm meine Hand
TTITLE11=Du bist ein Genie
TTITLE12=Keiner ist so wie du
TTITLE13=Wer weiß
TTITLE14=Ohne dich (schlaf ich heut' Nacht nicht ein)
EXTD=
EXTT0=
EXTT1=
EXTT2=
EXTT3=
EXTT4=
EXTT5=
EXTT6=
EXTT7=
EXTT8=
EXTT9=
EXTT10=
EXTT11=
EXTT12=
EXTT13=
EXTT14=
PLAYORDER=
